<?xml version="1.0" encoding="UTF-8"?>
<svg version="1.1" xmlns="http://www.w3.org/2000/svg" width="100" height="100">
<path d="M0 0 C33 0 66 0 100 0 C100 33 100 66 100 100 C67 100 34 100 0 100 C0 67 0 34 0 0 Z " fill="#335FFD" transform="translate(0,0)"/>
<path d="M0 0 C5.95238832 0.62656719 11.58360774 1.75601847 17.375 3.25 C18.24133057 3.47034912 19.10766113 3.69069824 20.00024414 3.91772461 C33.10050769 7.27533014 46.1052125 10.9219665 59 15 C58.36194581 21.41056799 56.98712915 27.41093728 55.3125 33.625 C54.91756348 35.11277954 54.91756348 35.11277954 54.51464844 36.63061523 C53.68267431 39.75545282 52.84222236 42.87791033 52 46 C51.72397949 47.02851074 51.44795898 48.05702148 51.16357422 49.11669922 C50.36241567 52.0995545 49.55742993 55.08133662 48.75 58.0625 C48.50419189 58.9714502 48.25838379 59.88040039 48.00512695 60.81689453 C46.79185684 65.25927825 45.51487332 69.64831202 44 74 C37.69116312 73.36838187 31.80067226 72.03190585 25.6875 70.375 C23.66684507 69.83526914 21.64600312 69.29623812 19.625 68.7578125 C18.56023438 68.47325195 17.49546875 68.18869141 16.3984375 67.89550781 C12.79226273 66.94526004 9.17886717 66.02784427 5.5625 65.1171875 C4.33442627 64.80604004 3.10635254 64.49489258 1.84106445 64.17431641 C-0.56800066 63.56484628 -2.97830226 62.9602401 -5.38989258 62.36083984 C-6.48454834 62.08191895 -7.5792041 61.80299805 -8.70703125 61.515625 C-10.16846558 61.14872559 -10.16846558 61.14872559 -11.65942383 60.77441406 C-14 60 -14 60 -16 58 C-15.68772461 56.83654053 -15.37544922 55.67308105 -15.05371094 54.47436523 C-13.87569277 50.08523755 -12.69783418 45.69606706 -11.52001953 41.30688477 C-11.01387698 39.42080569 -10.50769331 37.53473766 -10.00146484 35.64868164 C-9.50965208 33.8163139 -9.01791177 31.98392672 -8.52624512 30.15151978 C-8.04122516 28.3441406 -7.55595624 26.53682821 -7.07043457 24.72958374 C-5.9661641 20.61636056 -4.8664593 16.5021128 -3.78320312 12.38330078 C-3.59912903 11.68535904 -3.41505493 10.9874173 -3.22540283 10.26832581 C-2.73871661 8.4203031 -2.25451404 6.57162681 -1.77050781 4.72290039 C-1 2 -1 2 0 0 Z " fill="#F9FBFE" transform="translate(28,13)"/>
<path d="M0 0 C6.04801071 0.54981916 11.30601106 1.90429574 17 4 C16.71653722 5.91789713 16.4228972 7.83429183 16.125 9.75 C15.96257813 10.81734375 15.80015625 11.8846875 15.6328125 12.984375 C15.06776118 15.67708871 14.36577086 17.63572439 13 20 C11.08210287 19.71653722 9.16570817 19.4228972 7.25 19.125 C6.18265625 18.96257813 5.1153125 18.80015625 4.015625 18.6328125 C1.32291129 18.06776118 -0.63572439 17.36577086 -3 16 C-2.69075786 13.89535207 -2.3774944 11.7912947 -2.0625 9.6875 C-1.88847656 8.51574219 -1.71445312 7.34398437 -1.53515625 6.13671875 C-1 3 -1 3 0 0 Z " fill="#335EF9" transform="translate(43,40)"/>
<path d="M0 0 C1.65 0 3.3 0 5 0 C6.28538245 3.6162093 5.69219623 5.99261652 4.625 9.625 C4.34914063 10.58664063 4.07328125 11.54828125 3.7890625 12.5390625 C3 15 3 15 2 17 C0.02 16.67 -1.96 16.34 -4 16 C-4 15.67 -4 15.34 -4 15 C-2.35 15 -0.7 15 1 15 C1.16947579 13.58366664 1.33545507 12.16691467 1.5 10.75 C1.5928125 9.96109375 1.685625 9.1721875 1.78125 8.359375 C2.06154619 5.73109603 2.06154619 5.73109603 2 2 C1.34 1.34 0.68 0.68 0 0 Z " fill="#4464E2" transform="translate(54,43)"/>
<path d="M0 0 C0.99 0.33 1.98 0.66 3 1 C1.68 5.62 0.36 10.24 -1 15 C0.32 15.66 1.64 16.32 3 17 C2.34 17.33 1.68 17.66 1 18 C-1.125 17.0625 -1.125 17.0625 -3 16 C-2.69075786 13.89535207 -2.3774944 11.7912947 -2.0625 9.6875 C-1.88847656 8.51574219 -1.71445312 7.34398437 -1.53515625 6.13671875 C-1 3 -1 3 0 0 Z " fill="#526EE1" transform="translate(43,40)"/>
<path d="M0 0 C2.55544996 7.66634987 -1.6484226 16.10295423 -4.9765625 22.98046875 C-5.31429687 23.64691406 -5.65203125 24.31335938 -6 25 C-7.35818089 22.28363822 -6.66351062 21.16756113 -5.8203125 18.28125 C-5.55089844 17.34925781 -5.28148438 16.41726562 -5.00390625 15.45703125 C-4.71386719 14.48121094 -4.42382812 13.50539063 -4.125 12.5 C-3.84269531 11.52417969 -3.56039062 10.54835938 -3.26953125 9.54296875 C-1.16380295 2.3276059 -1.16380295 2.3276059 0 0 Z " fill="#4666E3" transform="translate(88,28)"/>
<path d="M0 0 C5.94 1.485 5.94 1.485 12 3 C12 3.33 12 3.66 12 4 C9.03 4 6.06 4 3 4 C3 3.34 3 2.68 3 2 C2.01 2 1.02 2 0 2 C0 1.34 0 0.68 0 0 Z " fill="#4869E3" transform="translate(32,77)"/>
<path d="M0 0 C2.64 0 5.28 0 8 0 C6.68 0.33 5.36 0.66 4 1 C3.34 3.64 2.68 6.28 2 9 C1.67 9 1.34 9 1 9 C0.67 6.03 0.34 3.06 0 0 Z " fill="#4564E7" transform="translate(24,12)"/>
<path d="M0 0 C7.50769231 -0.36923077 7.50769231 -0.36923077 10 1.5 C10.495 2.2425 10.495 2.2425 11 3 C9.741875 2.87625 8.48375 2.7525 7.1875 2.625 C6.12595703 2.52058594 6.12595703 2.52058594 5.04296875 2.4140625 C3 2 3 2 0 0 Z " fill="#CADCFC" transform="translate(48,81)"/>
<path d="M0 0 C4.95 0.99 4.95 0.99 10 2 C10 2.66 10 3.32 10 4 C5.74357648 4.3648363 3.46444495 3.47460354 0 1 C0 0.67 0 0.34 0 0 Z " fill="#4D71E7" transform="translate(62,85)"/>
</svg>
